<?xml version="1.0" encoding="UTF-8" standalone="no"?>
<svg width="135px" height="39px" viewBox="0 0 135 39" version="1.1" xmlns="http://www.w3.org/2000/svg" xmlns:xlink="http://www.w3.org/1999/xlink">
    <!-- Generator: Sketch 50.2 (55047) - http://www.bohemiancoding.com/sketch -->
    <title>Group 2</title>
    <desc>Created with Sketch.</desc>
    <defs>
        <polygon id="path-1" points="0 29 29 29 29 0 0 0"></polygon>
        <path d="M1.96716667,13.6767222 C1.82377778,13.62275 1.69972222,13.5309167 1.60708333,13.4092778 C0.608194444,12.093 -0.498638889,6.87058333 2.41666667,4.02777778 C5.28202778,1.23411111 7.91216667,0.560666667 9.48702778,0.406805556 C9.51361111,0.404388889 9.57402778,0.401166667 9.60061111,0.401166667 C11.5806667,0.401166667 24.3680556,9.06975 25.3282778,11.0626944 C26.4326944,13.3520833 26.3601944,17.8285556 23.7332778,19.3583056 C23.4150833,19.5435833 22.997,19.6297778 22.4178056,19.6297778 C17.922,19.6297778 2.61563889,13.92 1.96716667,13.6767222" id="path-3"></path>
        <polygon id="path-5" points="0 29 29 29 29 0 0 0"></polygon>
    </defs>
    <g id="Page-1" stroke="none" stroke-width="1" fill="none" fill-rule="evenodd">
        <g id="Group-2">
            <g id="Group-3">
                <g id="Group">
                    <path d="M60.547,12.615 C61.3030038,12.9090015 62.0099967,13.356997 62.668,13.959 L61.303,15.534 C60.7849974,15.0999978 60.2635026,14.785001 59.7385,14.589 C59.2134974,14.392999 58.650003,14.295 58.048,14.295 C57.3759966,14.295 56.8335021,14.4454985 56.4205,14.7465 C56.0074979,15.0475015 55.801,15.4709973 55.801,16.017 C55.801,16.3810018 55.8814992,16.6819988 56.0425,16.92 C56.2035008,17.1580012 56.4939979,17.3819989 56.914,17.592 C57.3340021,17.8020011 57.9569959,18.0329987 58.783,18.285 C60.2110071,18.7330022 61.2854964,19.2894967 62.0065,19.9545 C62.7275036,20.6195033 63.088,21.5889936 63.088,22.863 C63.088,23.7310043 62.8675022,24.5009966 62.4265,25.173 C61.9854978,25.8450034 61.3520041,26.3699981 60.526,26.748 C59.6999959,27.1260019 58.7200057,27.315 57.586,27.315 C56.4799945,27.315 55.4895044,27.1365018 54.6145,26.7795 C53.7394956,26.4224982 52.9870031,25.9360031 52.357,25.32 L53.785,23.724 C54.3450028,24.2000024 54.925997,24.5604988 55.528,24.8055 C56.130003,25.0505012 56.7949964,25.173 57.523,25.173 C58.321004,25.173 58.9649975,24.9840019 59.455,24.606 C59.9450025,24.2279981 60.19,23.6960034 60.19,23.01 C60.19,22.5899979 60.1060008,22.2435014 59.938,21.9705 C59.7699992,21.6974986 59.483002,21.4525011 59.077,21.2355 C58.670998,21.0184989 58.0830038,20.7910012 57.313,20.553 C55.7729923,20.0769976 54.6600034,19.5030034 53.974,18.831 C53.2879966,18.1589966 52.945,17.2770055 52.945,16.185 C52.945,15.386996 53.1549979,14.687003 53.575,14.085 C53.9950021,13.482997 54.5794963,13.0140017 55.3285,12.678 C56.0775037,12.3419983 56.9279952,12.174 57.88,12.174 C58.9020051,12.174 59.7909962,12.3209985 60.547,12.615 Z M73.5061103,25.0155 C73.639111,25.218501 73.8526089,25.3759994 74.1466103,25.488 L73.5796103,27.273 C72.9496072,27.2169997 72.4351123,27.0630013 72.0361103,26.811 C71.6371084,26.5589987 71.3326114,26.1740026 71.1226103,25.656 C70.7446085,26.2160028 70.2721132,26.6324986 69.7051103,26.9055 C69.1381075,27.1785014 68.5046138,27.315 67.8046103,27.315 C66.6986048,27.315 65.8236136,27.0000032 65.1796103,26.37 C64.5356071,25.7399969 64.2136103,24.9140051 64.2136103,23.892 C64.2136103,22.687994 64.651106,21.7675032 65.5261103,21.1305 C66.4011147,20.4934968 67.6506022,20.175 69.2746103,20.175 L70.6606103,20.175 L70.6606103,19.545 C70.6606103,18.8309964 70.496112,18.3305014 70.1671103,18.0435 C69.8381087,17.7564986 69.309614,17.613 68.5816103,17.613 C67.7696063,17.613 66.7896161,17.808998 65.6416103,18.201 L65.0116103,16.374 C66.3976173,15.8419973 67.7416038,15.576 69.0436103,15.576 C71.8856246,15.576 73.3066103,16.8499873 73.3066103,19.398 L73.3066103,24.06 C73.3066103,24.4940022 73.3731097,24.812499 73.5061103,25.0155 Z M70.6606103,23.997 L70.6606103,21.75 L69.5476103,21.75 C67.8116017,21.75 66.9436103,22.3939936 66.9436103,23.682 C66.9436103,24.2140027 67.076609,24.6269985 67.3426103,24.921 C67.6086117,25.2150015 68.0006078,25.362 68.5186103,25.362 C69.4286149,25.362 70.1426078,24.9070045 70.6606103,23.997 Z M83.5252207,16.899 L82.4752207,18.474 C81.5232159,17.871997 80.5922252,17.571 79.6822207,17.571 C79.150218,17.571 78.7372222,17.672499 78.4432207,17.8755 C78.1492192,18.078501 78.0022207,18.3479983 78.0022207,18.684 C78.0022207,18.9360013 78.0652201,19.1459992 78.1912207,19.314 C78.3172213,19.4820008 78.544719,19.6394993 78.8737207,19.7865 C79.2027223,19.9335007 79.6892175,20.0979991 80.3332207,20.28 C81.5372267,20.6020016 82.4297178,21.0289973 83.0107207,21.561 C83.5917236,22.0930027 83.8822207,22.8349952 83.8822207,23.787 C83.8822207,24.8930055 83.4342252,25.7574969 82.5382207,26.3805 C81.6422162,27.0035031 80.5292273,27.315 79.1992207,27.315 C78.2892161,27.315 77.4597244,27.1750014 76.7107207,26.895 C75.9617169,26.6149986 75.3142234,26.2300025 74.7682207,25.74 L76.1122207,24.228 C77.0782255,24.9560036 78.0862154,25.32 79.1362207,25.32 C79.7382237,25.32 80.2177189,25.2010012 80.5747207,24.963 C80.9317225,24.7249988 81.1102207,24.3960021 81.1102207,23.976 C81.1102207,23.6539984 81.0437214,23.3985009 80.9107207,23.2095 C80.77772,23.0204991 80.5397224,22.8525007 80.1967207,22.7055 C79.853719,22.5584993 79.3182243,22.3800011 78.5902207,22.17 C77.456215,21.8619985 76.6232234,21.4315028 76.0912207,20.8785 C75.559218,20.3254972 75.2932207,19.6360041 75.2932207,18.81 C75.2932207,18.1939969 75.4717189,17.6410025 75.8287207,17.151 C76.1857225,16.6609975 76.6897174,16.2760014 77.3407207,15.996 C77.9917239,15.7159986 78.7372165,15.576 79.5772207,15.576 C81.0752282,15.576 82.391215,16.0169956 83.5252207,16.899 Z M94.016831,16.479 C94.5768338,17.081003 94.856831,17.9069947 94.856831,18.957 L94.856831,27 L92.168831,27 L92.168831,19.377 C92.168831,18.7189967 92.0533322,18.2570013 91.822331,17.991 C91.5913299,17.7249987 91.2518333,17.592 90.803831,17.592 C90.3558288,17.592 89.9428329,17.7354986 89.564831,18.0225 C89.1868291,18.3095014 88.8228328,18.7189973 88.472831,19.251 L88.472831,27 L85.784831,27 L85.784831,11.46 L88.472831,11.187 L88.472831,17.214 C89.3688355,16.1219945 90.4468247,15.576 91.706831,15.576 C92.6868359,15.576 93.4568282,15.876997 94.016831,16.479 Z M100.392441,15.891 L100.392441,27 L97.7044414,27 L97.7044414,15.891 L100.392441,15.891 Z M100.255941,10.7355 C100.570943,11.0505016 100.728441,11.4389977 100.728441,11.901 C100.728441,12.3630023 100.570943,12.7479985 100.255941,13.056 C99.9409398,13.3640015 99.5314439,13.518 99.0274414,13.518 C98.5374389,13.518 98.134943,13.3640015 97.8199414,13.056 C97.5049398,12.7479985 97.3474414,12.3630023 97.3474414,11.901 C97.3474414,11.4389977 97.5049398,11.0505016 97.8199414,10.7355 C98.134943,10.4204984 98.5374389,10.263 99.0274414,10.263 C99.5314439,10.263 99.9409398,10.4204984 100.255941,10.7355 Z M117.268052,16.4895 C117.800054,17.098503 118.066052,17.9209948 118.066052,18.957 L118.066052,27 L115.378052,27 L115.378052,19.377 C115.378052,18.186994 114.972056,17.592 114.160052,17.592 C113.72605,17.592 113.351553,17.7284986 113.036552,18.0015 C112.72155,18.2745014 112.396053,18.6979971 112.060052,19.272 L112.060052,27 L109.372052,27 L109.372052,19.377 C109.372052,18.186994 108.966056,17.592 108.154052,17.592 C107.706049,17.592 107.324553,17.7284986 107.009552,18.0015 C106.69455,18.2745014 106.369053,18.6979971 106.033052,19.272 L106.033052,27 L103.345052,27 L103.345052,15.891 L105.676052,15.891 L105.886052,17.34 C106.726056,16.1639941 107.797045,15.576 109.099052,15.576 C109.743055,15.576 110.299549,15.7404984 110.768552,16.0695 C111.237554,16.3985016 111.577051,16.8569971 111.787052,17.445 C112.235054,16.842997 112.728549,16.3810016 113.267552,16.059 C113.806554,15.7369984 114.426048,15.576 115.126052,15.576 C116.022056,15.576 116.736049,15.880497 117.268052,16.4895 Z M123.601662,15.891 L123.601662,27 L120.913662,27 L120.913662,15.891 L123.601662,15.891 Z M123.465162,10.7355 C123.780164,11.0505016 123.937662,11.4389977 123.937662,11.901 C123.937662,12.3630023 123.780164,12.7479985 123.465162,13.056 C123.150161,13.3640015 122.740665,13.518 122.236662,13.518 C121.74666,13.518 121.344164,13.3640015 121.029162,13.056 C120.714161,12.7479985 120.556662,12.3630023 120.556662,11.901 C120.556662,11.4389977 120.714161,11.0505016 121.029162,10.7355 C121.344164,10.4204984 121.74666,10.263 122.236662,10.263 C122.740665,10.263 123.150161,10.4204984 123.465162,10.7355 Z" id="Sashimi" fill="#D1D1D1"></path>
                    <rect id="Rectangle" stroke="#454E60" stroke-width="3" x="40.5" y="1.5" width="93" height="36"></rect>
                    <rect id="Rectangle-2" fill="#454E60" x="0" y="0" width="39" height="39"></rect>
                </g>
                <g id="1f363" transform="translate(7.000000, 5.000000)">
                    <g id="Group" transform="translate(14.500000, 14.500000) scale(-1, 1) rotate(-180.000000) translate(-14.500000, -14.500000) ">
                        <g id="Clipped">
                            <mask id="mask-2" fill="white">
                                <use xlink:href="#path-1"></use>
                            </mask>
                            <g id="Shape"></g>
                            <path d="M9.60061111,3.62338889 C9.57402778,3.62338889 9.51361111,3.62661111 9.48783333,3.62902778 C7.91136111,3.78288889 4.63597222,4.72619444 2.41666667,8.05555556 C0.805555556,10.4722222 0.608194444,15.3152222 1.60788889,16.6315 C1.69972222,16.7531389 1.82377778,16.8457778 1.96636111,16.8989444 C2.61644444,17.1422222 17.922,22.852 22.4178056,22.852 C22.997,22.852 23.4150833,22.7658056 23.7332778,22.5805278 C26.3601944,21.0507778 26.4335,16.5743056 25.3282778,14.2841111 C24.3680556,12.2919722 11.5806667,3.62338889 9.60061111,3.62338889" id="Shape" fill="#EEEEEE" fill-rule="nonzero" mask="url(#mask-2)"></path>
                        </g>
                        <g id="Clipped" transform="translate(0.000000, 3.222222)">
                            <mask id="mask-4" fill="white">
                                <use xlink:href="#path-3"></use>
                            </mask>
                            <g id="Shape"></g>
                            <path d="M10.4722222,10.4722222 C9.66666667,8.05555556 8.05555556,-0.805555556 12.0833333,-2.41666667 C16.1111111,-4.02777778 31.4166667,7.18313889 29.8055556,11.6467222 C28.1944444,16.1111111 24.1666667,20.1388889 20.9444444,17.7222222 C17.7222222,15.3055556 10.4722222,10.4722222 10.4722222,10.4722222" id="Shape" fill="#CCD6DD" fill-rule="nonzero" mask="url(#mask-4)"></path>
                        </g>
                        <g id="Clipped">
                            <mask id="mask-6" fill="white">
                                <use xlink:href="#path-5"></use>
                            </mask>
                            <g id="Shape"></g>
                            <g id="Group" mask="url(#mask-6)">
                                <g transform="translate(0.000000, 0.805556)">
                                    <path d="M25.7919556,22.9418194 C25.6090944,23.1134028 25.35615,23.1907361 25.1104556,23.1488472 L1.44645556,19.2555972 C1.05012222,19.1903472 0.761733333,18.8415417 0.772205556,18.4395694 C0.793955556,17.6251528 0.787511111,17.0330694 0.780261111,16.3660694 C0.776233333,15.9955139 0.772205556,15.6024028 0.772205556,15.1384028 C0.772205556,14.8983472 0.878538889,14.6711806 1.06301111,14.518125 C2.70070556,13.1591528 8.08262222,9.55831944 9.30626111,8.94609722 C9.42065,8.88970833 9.5439,8.86151389 9.66634444,8.86151389 C9.84115,8.86151389 10.0143444,8.91790278 10.1577333,9.02826389 C12.2167333,10.6119861 23.4357056,17.026625 25.1926222,17.7886806 C25.4624833,17.9062917 25.6469556,18.1616528 25.6735389,18.454875 C25.7742333,19.5609028 26.0424833,22.2740139 26.0424833,22.2740139 C26.0674556,22.5237361 25.9748167,22.7710417 25.7919556,22.9418194" id="Shape" stroke="none" fill="#A0041E" fill-rule="nonzero"></path>
                                    <path d="M25.84625,22.8863167 C24.2190278,24.7350667 18.0911667,27.3764833 17.052,27.4215944 C16.98675,27.4248167 16.9239167,27.4191778 16.8602778,27.4070944 C8.71933333,25.7855111 3.39219444,21.1189278 1.38636111,19.3620111 L1.05125,19.0704 C0.864361111,18.9092889 0.762055556,18.6708444 0.772527778,18.4243444 C0.783805556,18.1778444 0.907055556,17.9498722 1.10763889,17.8056778 C1.38072222,17.6099278 7.80744444,13.0045667 9.37102778,12.1200667 C9.49508333,12.0507889 9.63122222,12.01615 9.76736111,12.01615 C9.96069444,12.01615 10.1524167,12.0862333 10.3038611,12.2207611 C13.4576111,15.0394 24.0788611,21.0504556 25.52725,21.60065 C25.7745556,21.6949 25.9598333,21.9035389 26.0234722,22.1605111 C26.0871111,22.4166778 26.0210556,22.68815 25.84625,22.8863167" id="Shape" stroke="none" fill="#DD2E44" fill-rule="nonzero"></path>
                                    <g id="Group" stroke="none" stroke-width="1" fill="none" fill-rule="evenodd" transform="translate(5.638889, 14.500000)" stroke-linecap="round" stroke-linejoin="round">
                                        <path d="M0.335916667,6.77995833 C1.04077778,4.63154167 1.40972222,2.41626389 1.74563889,0.470041667" id="Shape" stroke="#EA596E" stroke-width="2.5"></path>
                                        <path d="M4.79990278,9.53254167 C5.63929167,7.25040278 6.54554167,2.01429167 6.61240278,0.671430556" id="Shape" stroke="#EA596E" stroke-width="2.5"></path>
                                        <path d="M9.66666667,11.2777778 C10.4722222,8.86111111 10.9491111,5.02425 11.1440556,3.72569444" id="Shape" stroke="#EA596E" stroke-width="2.5"></path>
                                        <path d="M14.86975,10.4387917 C15.2725278,9.29731944 15.5407778,8.15665278 15.7083333,6.477875" id="Shape" stroke="#EA596E" stroke-width="2.5"></path>
                                    </g>
                                    <path d="M25.8870917,9.66666667 C24.5063694,10.6615278 22.6205639,11.2777778 20.541425,11.2777778 C18.4622861,11.2777778 16.5764806,10.6615278 15.1965639,9.66666667 L12.8886472,9.66666667 L12.8886472,5.63888889 C12.8886472,2.53025 16.321925,0 20.541425,0 C24.7617306,0 28.1942028,2.53025 28.1942028,5.63888889 L28.1942028,9.66666667 L25.8870917,9.66666667 Z" id="Shape" stroke="none" fill="#292F33" fill-rule="nonzero"></path>
                                    <path d="M20.5416667,15.3055556 C16.3221667,15.3055556 12.8888889,12.7753056 12.8888889,9.66666667 C12.8888889,6.55802778 16.3221667,4.02777778 20.5416667,4.02777778 C24.7611667,4.02777778 28.1944444,6.55802778 28.1944444,9.66666667 C28.1944444,12.7753056 24.7611667,15.3055556 20.5416667,15.3055556" id="Shape" stroke="none" fill="#292F33" fill-rule="nonzero"></path>
                                    <path d="M26.2474167,9.66666667 C26.2474167,7.44172222 23.693,5.63888889 20.5416667,5.63888889 C17.3903333,5.63888889 14.8351111,7.44172222 14.8351111,9.66666667 C14.8351111,11.8916111 17.3903333,13.6944444 20.5416667,13.6944444 C23.693,13.6944444 26.2474167,11.8916111 26.2474167,9.66666667" id="Shape" stroke="none" fill="#E1E8ED" fill-rule="nonzero"></path>
                                    <path d="M26.2474167,9.66666667 C26.2474167,7.44172222 23.693,5.63888889 20.5416667,5.63888889 C17.3903333,5.63888889 14.8351111,7.44172222 14.8351111,9.66666667 C14.8351111,11.8916111 17.3903333,13.6944444 20.5416667,13.6944444 C23.693,13.6944444 26.2474167,11.8916111 26.2474167,9.66666667 Z" id="Shape" stroke="#E1E8ED" stroke-width="2.08375" fill="none" stroke-linecap="round" stroke-linejoin="round"></path>
                                    <path d="M17.0850278,10.0356111 C17.0850278,10.3755556 18.5398611,10.3054722 20.5416667,10.3054722 C22.5434722,10.3054722 23.93225,10.7453056 23.93225,10.4053611 C23.93225,8.9755 22.5434722,7.54402778 20.5416667,7.54402778 C18.5398611,7.54402778 17.0850278,8.60575 17.0850278,10.0356111" id="Shape" stroke="none" fill="#77B255" fill-rule="nonzero"></path>
                                    <path d="M17.0850278,10.0356111 C17.0850278,10.3755556 18.5398611,10.3054722 20.5416667,10.3054722 C22.5434722,10.3054722 23.93225,10.7453056 23.93225,10.4053611 C23.93225,8.9755 22.5434722,7.54402778 20.5416667,7.54402778 C18.5398611,7.54402778 17.0850278,8.60575 17.0850278,10.0356111 Z" id="Shape" stroke="#77B255" stroke-width="1.25" fill="none"></path>
                                    <path d="M24.1666667,10.4722222 C24.1666667,10.4722222 22.5555556,11.2777778 20.1388889,10.4722222 C18.2401944,9.83905556 16.9166667,8.40919444 16.9166667,9.83986111 C16.9166667,11.2697222 18.5398611,12.4281111 20.5416667,12.4281111 C22.5434722,12.4281111 24.1666667,11.2777778 24.1666667,10.4722222" id="Shape" stroke="none" fill="#F4900C" fill-rule="nonzero"></path>
                                    <path d="M24.1666667,10.4722222 C24.1666667,10.4722222 22.5555556,11.2777778 20.1388889,10.4722222 C18.2401944,9.83905556 16.9166667,8.40919444 16.9166667,9.83986111 C16.9166667,11.2697222 18.5398611,12.4281111 20.5416667,12.4281111 C22.5434722,12.4281111 24.1666667,11.2777778 24.1666667,10.4722222 Z" id="Shape" stroke="#F4900C" stroke-width="1.25" fill="none" stroke-linecap="round" stroke-linejoin="round"></path>
                                </g>
                            </g>
                        </g>
                    </g>
                </g>
            </g>
        </g>
    </g>
</svg>